<svg xmlns="http://www.w3.org/2000/svg" width="152.599465" height="152.599465" viewBox="0 0 40.375274 40.375275">
  <path d="M35.302044 5.073231c3.798312 3.798312 3.536262 10.176057-.587556 14.299875l-7.521959 7.521959c-4.123819 4.12382-10.501565 4.38587-14.299876.587558-3.798312-3.798312-3.536261-10.176058.587558-14.299876l7.521959-7.521959c4.123818-4.123818 10.501563-4.385869 14.299874-.587557zm-7.819422 7.819423c3.798311 3.798312 3.536261 10.176057-.587558 14.299876l-7.52196 7.521955c-4.123818 4.12382-10.50156 4.38587-14.299872.58756-3.798311-3.79831-3.536264-10.176055.587555-14.299874l7.521959-7.521959c4.123819-4.123819 10.501564-4.38587 14.299876-.587558z" fill="none" stroke="#2484de" stroke-width="4.808337"/>
</svg>
